<svg id="visual" viewBox="0 0 900 600" width="900" height="600" xmlns="http://www.w3.org/2000/svg"
    xmlns:xlink="http://www.w3.org/1999/xlink" version="1.1">
    <rect x="0" y="0" width="900" height="600" fill="#26292f"></rect>
    <defs>
        <linearGradient id="grad1_0" x1="33.3%" y1="100%" x2="100%" y2="0%">
            <stop offset="20%" stop-color="#2190ff" stop-opacity="1"></stop>
            <stop offset="80%" stop-color="#2190ff" stop-opacity="1"></stop>
        </linearGradient>
    </defs>
    <defs>
        <linearGradient id="grad1_1" x1="33.3%" y1="100%" x2="100%" y2="0%">
            <stop offset="20%" stop-color="#2190ff" stop-opacity="1"></stop>
            <stop offset="80%" stop-color="#2f6cb4" stop-opacity="1"></stop>
        </linearGradient>
    </defs>
    <defs>
        <linearGradient id="grad1_2" x1="33.3%" y1="100%" x2="100%" y2="0%">
            <stop offset="20%" stop-color="#30496e" stop-opacity="1"></stop>
            <stop offset="80%" stop-color="#2f6cb4" stop-opacity="1"></stop>
        </linearGradient>
    </defs>
    <defs>
        <linearGradient id="grad1_3" x1="33.3%" y1="100%" x2="100%" y2="0%">
            <stop offset="20%" stop-color="#30496e" stop-opacity="1"></stop>
            <stop offset="80%" stop-color="#26292f" stop-opacity="1"></stop>
        </linearGradient>
    </defs>
    <defs>
        <linearGradient id="grad2_0" x1="0%" y1="100%" x2="66.7%" y2="0%">
            <stop offset="20%" stop-color="#2190ff" stop-opacity="1"></stop>
            <stop offset="80%" stop-color="#2190ff" stop-opacity="1"></stop>
        </linearGradient>
    </defs>
    <defs>
        <linearGradient id="grad2_1" x1="0%" y1="100%" x2="66.7%" y2="0%">
            <stop offset="20%" stop-color="#2f6cb4" stop-opacity="1"></stop>
            <stop offset="80%" stop-color="#2190ff" stop-opacity="1"></stop>
        </linearGradient>
    </defs>
    <defs>
        <linearGradient id="grad2_2" x1="0%" y1="100%" x2="66.7%" y2="0%">
            <stop offset="20%" stop-color="#2f6cb4" stop-opacity="1"></stop>
            <stop offset="80%" stop-color="#30496e" stop-opacity="1"></stop>
        </linearGradient>
    </defs>
    <defs>
        <linearGradient id="grad2_3" x1="0%" y1="100%" x2="66.7%" y2="0%">
            <stop offset="20%" stop-color="#26292f" stop-opacity="1"></stop>
            <stop offset="80%" stop-color="#30496e" stop-opacity="1"></stop>
        </linearGradient>
    </defs>
    <g transform="translate(900, 600)">
        <path
            d="M-351.5 0C-347.7 -47.1 -343.8 -94.2 -324.8 -134.5C-305.8 -174.8 -271.6 -208.2 -236.9 -236.9C-202.2 -265.5 -167 -289.3 -127.4 -307.7C-87.9 -326 -43.9 -338.8 0 -351.5L0 0Z"
            fill="#2c394e"></path>
        <path
            d="M-263.7 0C-260.8 -35.3 -257.9 -70.7 -243.6 -100.9C-229.3 -131.1 -203.7 -156.2 -177.7 -177.7C-151.6 -199.1 -125.2 -217 -95.6 -230.7C-65.9 -244.5 -33 -254.1 0 -263.7L0 0Z"
            fill="#315a90"></path>
        <path
            d="M-175.8 0C-173.8 -23.6 -171.9 -47.1 -162.4 -67.3C-152.9 -87.4 -135.8 -104.1 -118.4 -118.4C-101.1 -132.8 -83.5 -144.7 -63.7 -153.8C-43.9 -163 -22 -169.4 0 -175.8L0 0Z"
            fill="#2a7ed9"></path>
        <path
            d="M-87.9 0C-86.9 -11.8 -86 -23.6 -81.2 -33.6C-76.4 -43.7 -67.9 -52.1 -59.2 -59.2C-50.5 -66.4 -41.7 -72.3 -31.9 -76.9C-22 -81.5 -11 -84.7 0 -87.9L0 0Z"
            fill="#2190ff"></path>
    </g>
</svg>