<svg id="visual" viewBox="0 0 900 600" width="900" height="600" xmlns="http://www.w3.org/2000/svg" xmlns:xlink="http://www.w3.org/1999/xlink" version="1.1"><path d="M827 600L830 566.7C833 533.3 839 466.7 843.5 400C848 333.3 851 266.7 848 200C845 133.3 836 66.7 831.5 33.3L827 0L900 0L900 33.3C900 66.7 900 133.3 900 200C900 266.7 900 333.3 900 400C900 466.7 900 533.3 900 566.7L900 600Z" fill="#bb9e2d"></path><path d="M764 600L767 566.7C770 533.3 776 466.7 780.5 400C785 333.3 788 266.7 785 200C782 133.3 773 66.7 768.5 33.3L764 0L828 0L832.5 33.3C837 66.7 846 133.3 849 200C852 266.7 849 333.3 844.5 400C840 466.7 834 533.3 831 566.7L828 600Z" fill="#c8aa32"></path><path d="M692 600L701 566.7C710 533.3 728 466.7 735.5 400C743 333.3 740 266.7 731 200C722 133.3 707 66.7 699.5 33.3L692 0L765 0L769.5 33.3C774 66.7 783 133.3 786 200C789 266.7 786 333.3 781.5 400C777 466.7 771 533.3 768 566.7L765 600Z" fill="#d5b638"></path><path d="M647 600L645.5 566.7C644 533.3 641 466.7 645.5 400C650 333.3 662 266.7 662 200C662 133.3 650 66.7 644 33.3L638 0L693 0L700.5 33.3C708 66.7 723 133.3 732 200C741 266.7 744 333.3 736.5 400C729 466.7 711 533.3 702 566.7L693 600Z" fill="#e3c23d"></path><path d="M593 600L591.5 566.7C590 533.3 587 466.7 593 400C599 333.3 614 266.7 615.5 200C617 133.3 605 66.7 599 33.3L593 0L639 0L645 33.3C651 66.7 663 133.3 663 200C663 266.7 651 333.3 646.5 400C642 466.7 645 533.3 646.5 566.7L648 600Z" fill="#f0ce42"></path><path d="M395 600L398 566.7C401 533.3 407 466.7 404 400C401 333.3 389 266.7 374 200C359 133.3 341 66.7 332 33.3L323 0L594 0L600 33.3C606 66.7 618 133.3 616.5 200C615 266.7 600 333.3 594 400C588 466.7 591 533.3 592.5 566.7L594 600Z" fill="#f7d64d"></path><path d="M350 600L354.5 566.7C359 533.3 368 466.7 365 400C362 333.3 347 266.7 329 200C311 133.3 290 66.7 279.5 33.3L269 0L324 0L333 33.3C342 66.7 360 133.3 375 200C390 266.7 402 333.3 405 400C408 466.7 402 533.3 399 566.7L396 600Z" fill="#f8d95b"></path><path d="M197 600L206 566.7C215 533.3 233 466.7 230 400C227 333.3 203 266.7 191 200C179 133.3 179 66.7 179 33.3L179 0L270 0L280.5 33.3C291 66.7 312 133.3 330 200C348 266.7 363 333.3 366 400C369 466.7 360 533.3 355.5 566.7L351 600Z" fill="#f8dc69"></path><path d="M71 600L69.5 566.7C68 533.3 65 466.7 65 400C65 333.3 68 266.7 69.5 200C71 133.3 71 66.7 71 33.3L71 0L180 0L180 33.3C180 66.7 180 133.3 192 200C204 266.7 228 333.3 231 400C234 466.7 216 533.3 207 566.7L198 600Z" fill="#f9df76"></path><path d="M0 600L0 566.7C0 533.3 0 466.7 0 400C0 333.3 0 266.7 0 200C0 133.3 0 66.7 0 33.3L0 0L72 0L72 33.3C72 66.7 72 133.3 70.5 200C69 266.7 66 333.3 66 400C66 466.7 69 533.3 70.5 566.7L72 600Z" fill="#f9e283"></path></svg>