<svg id="visual" viewBox="0 0 900 600" width="900" height="600" xmlns="http://www.w3.org/2000/svg" xmlns:xlink="http://www.w3.org/1999/xlink" version="1.1"><rect x="0" y="0" width="900" height="600" fill="#111111"></rect><g transform="translate(894.1340985990563 -21.78580605616895)"><path d="M220.1 -246.7C281.7 -210.7 325.5 -137.9 329.1 -65.7C332.8 6.6 296.3 78.3 255.7 146.6C215 215 170.3 279.9 108 307.1C45.7 334.2 -34.1 323.6 -103.5 294.1C-172.9 264.6 -232 216.3 -270.4 154C-308.9 91.7 -326.8 15.5 -313 -53.9C-299.2 -123.3 -253.7 -185.7 -196.3 -222.5C-138.8 -259.2 -69.4 -270.2 4.9 -276.1C79.3 -282 158.6 -282.7 220.1 -246.7" fill="#252525"></path></g></svg>