<svg id="visual" viewBox="0 0 900 600" width="900" height="600" xmlns="http://www.w3.org/2000/svg" xmlns:xlink="http://www.w3.org/1999/xlink" version="1.1"><rect x="0" y="0" width="900" height="600" fill="#111111"></rect><g transform="translate(516.7619122476437 268.46459839668427)"><path d="M137.9 -195.6C168 -167.9 174.3 -113.3 182.6 -64.8C190.8 -16.3 201 26.2 191.8 64.8C182.7 103.4 154.2 138.3 119 189.4C83.9 240.4 41.9 307.7 2.6 304.1C-36.7 300.6 -73.5 226.1 -130.7 182.2C-187.9 138.3 -265.6 124.9 -302.3 81.8C-338.9 38.6 -334.5 -34.3 -309.1 -96.7C-283.7 -159.1 -237.4 -211 -182.4 -230.7C-127.4 -250.3 -63.7 -237.6 -4.9 -230.9C53.9 -224.2 107.8 -223.3 137.9 -195.6" fill="#f7d445"></path></g></svg>