<svg xmlns="http://www.w3.org/2000/svg" data-name="Layer 1" viewBox="0 0 100 125" x="0px" y="0px">
    <path
        d="M26.58,54.21a4,4,0,0,0,4,4h0l38.84-.06a4,4,0,0,0,0-8h0l-38.84.06A4,4,0,0,0,26.58,54.21ZM79.71,36.67h0l-17,0a4,4,0,1,0,0,8h0l17,0h0c4.35,0,7.9,4.23,7.91,9.44s-3.54,9.45-7.89,9.46l-17,0a4,4,0,0,0,0,8h0l17,0c8.77,0,15.89-7.86,15.88-17.48S88.46,36.67,79.71,36.67Zm-42.39,27h0l-17,0h0c-4.35,0-7.9-4.23-7.91-9.43s3.54-9.45,7.89-9.46l17,0a4,4,0,0,0,0-8h0l-17,0c-8.77,0-15.89,7.85-15.88,17.48s7.16,17.41,15.91,17.41h0l17,0a4,4,0,1,0,0-8Z" />
</svg>