<svg id="visual" viewBox="0 0 900 600" width="900" height="600" xmlns="http://www.w3.org/2000/svg" xmlns:xlink="http://www.w3.org/1999/xlink" version="1.1"><rect x="0" y="0" width="900" height="600" fill="#111111"></rect><defs><linearGradient id="grad1_0" x1="33.3%" y1="0%" x2="100%" y2="100%"><stop offset="20%" stop-color="#bacdca" stop-opacity="1"></stop><stop offset="80%" stop-color="#bacdca" stop-opacity="1"></stop></linearGradient></defs><defs><linearGradient id="grad1_1" x1="33.3%" y1="0%" x2="100%" y2="100%"><stop offset="20%" stop-color="#bacdca" stop-opacity="1"></stop><stop offset="80%" stop-color="#7c8886" stop-opacity="1"></stop></linearGradient></defs><defs><linearGradient id="grad1_2" x1="33.3%" y1="0%" x2="100%" y2="100%"><stop offset="20%" stop-color="#434948" stop-opacity="1"></stop><stop offset="80%" stop-color="#7c8886" stop-opacity="1"></stop></linearGradient></defs><defs><linearGradient id="grad1_3" x1="33.3%" y1="0%" x2="100%" y2="100%"><stop offset="20%" stop-color="#434948" stop-opacity="1"></stop><stop offset="80%" stop-color="#111111" stop-opacity="1"></stop></linearGradient></defs><defs><linearGradient id="grad2_0" x1="0%" y1="0%" x2="66.7%" y2="100%"><stop offset="20%" stop-color="#bacdca" stop-opacity="1"></stop><stop offset="80%" stop-color="#bacdca" stop-opacity="1"></stop></linearGradient></defs><defs><linearGradient id="grad2_1" x1="0%" y1="0%" x2="66.7%" y2="100%"><stop offset="20%" stop-color="#7c8886" stop-opacity="1"></stop><stop offset="80%" stop-color="#bacdca" stop-opacity="1"></stop></linearGradient></defs><defs><linearGradient id="grad2_2" x1="0%" y1="0%" x2="66.7%" y2="100%"><stop offset="20%" stop-color="#7c8886" stop-opacity="1"></stop><stop offset="80%" stop-color="#434948" stop-opacity="1"></stop></linearGradient></defs><defs><linearGradient id="grad2_3" x1="0%" y1="0%" x2="66.7%" y2="100%"><stop offset="20%" stop-color="#111111" stop-opacity="1"></stop><stop offset="80%" stop-color="#434948" stop-opacity="1"></stop></linearGradient></defs><g transform="translate(900, 0)"><path d="M0 324.5C-44.9 296.1 -89.9 267.7 -141 244.2C-192.1 220.7 -249.4 202.1 -281 162.2C-312.6 122.4 -318.6 61.2 -324.5 0L0 0Z" fill="#292c2c"></path><path d="M0 243.4C-33.7 222.1 -67.4 200.8 -105.7 183.2C-144.1 165.5 -187.1 151.6 -210.8 121.7C-234.5 91.8 -238.9 45.9 -243.4 0L0 0Z" fill="#5f6766"></path><path d="M0 162.2C-22.5 148.1 -44.9 133.9 -70.5 122.1C-96.1 110.4 -124.7 101.1 -140.5 81.1C-156.3 61.2 -159.3 30.6 -162.2 0L0 0Z" fill="#9aaaa7"></path><path d="M0 81.1C-11.2 74 -22.5 66.9 -35.2 61.1C-48 55.2 -62.4 50.5 -70.3 40.6C-78.2 30.6 -79.6 15.3 -81.1 0L0 0Z" fill="#bacdca"></path></g><g transform="translate(0, 600)"><path d="M0 -324.5C59.6 -317.6 119.1 -310.8 162.2 -281C205.4 -251.3 232 -198.7 256.3 -148C280.6 -97.3 302.6 -48.7 324.5 0L0 0Z" fill="#292c2c"></path><path d="M0 -243.4C44.7 -238.2 89.3 -233.1 121.7 -210.8C154 -188.5 174 -149 192.3 -111C210.5 -73 226.9 -36.5 243.4 0L0 0Z" fill="#5f6766"></path><path d="M0 -162.2C29.8 -158.8 59.6 -155.4 81.1 -140.5C102.7 -125.6 116 -99.3 128.2 -74C140.3 -48.7 151.3 -24.3 162.2 0L0 0Z" fill="#9aaaa7"></path><path d="M0 -81.1C14.9 -79.4 29.8 -77.7 40.6 -70.3C51.3 -62.8 58 -49.7 64.1 -37C70.2 -24.3 75.6 -12.2 81.1 0L0 0Z" fill="#bacdca"></path></g></svg>