<svg id="visual" viewBox="0 0 900 600" width="900" height="600" xmlns="http://www.w3.org/2000/svg" xmlns:xlink="http://www.w3.org/1999/xlink" version="1.1"><rect x="0" y="0" width="900" height="600" fill="#111111"></rect><defs><linearGradient id="grad1_0" x1="33.3%" y1="100%" x2="100%" y2="0%"><stop offset="20%" stop-color="#ff013c" stop-opacity="1"></stop><stop offset="80%" stop-color="#ff013c" stop-opacity="1"></stop></linearGradient></defs><defs><linearGradient id="grad1_1" x1="33.3%" y1="100%" x2="100%" y2="0%"><stop offset="20%" stop-color="#ff013c" stop-opacity="1"></stop><stop offset="80%" stop-color="#cb1c33" stop-opacity="1"></stop></linearGradient></defs><defs><linearGradient id="grad1_2" x1="33.3%" y1="100%" x2="100%" y2="0%"><stop offset="20%" stop-color="#99222a" stop-opacity="1"></stop><stop offset="80%" stop-color="#cb1c33" stop-opacity="1"></stop></linearGradient></defs><defs><linearGradient id="grad1_3" x1="33.3%" y1="100%" x2="100%" y2="0%"><stop offset="20%" stop-color="#99222a" stop-opacity="1"></stop><stop offset="80%" stop-color="#6a2122" stop-opacity="1"></stop></linearGradient></defs><defs><linearGradient id="grad1_4" x1="33.3%" y1="100%" x2="100%" y2="0%"><stop offset="20%" stop-color="#3d1b1a" stop-opacity="1"></stop><stop offset="80%" stop-color="#6a2122" stop-opacity="1"></stop></linearGradient></defs><defs><linearGradient id="grad1_5" x1="33.3%" y1="100%" x2="100%" y2="0%"><stop offset="20%" stop-color="#3d1b1a" stop-opacity="1"></stop><stop offset="80%" stop-color="#111111" stop-opacity="1"></stop></linearGradient></defs><defs><linearGradient id="grad2_0" x1="0%" y1="100%" x2="66.7%" y2="0%"><stop offset="20%" stop-color="#ff013c" stop-opacity="1"></stop><stop offset="80%" stop-color="#ff013c" stop-opacity="1"></stop></linearGradient></defs><defs><linearGradient id="grad2_1" x1="0%" y1="100%" x2="66.7%" y2="0%"><stop offset="20%" stop-color="#cb1c33" stop-opacity="1"></stop><stop offset="80%" stop-color="#ff013c" stop-opacity="1"></stop></linearGradient></defs><defs><linearGradient id="grad2_2" x1="0%" y1="100%" x2="66.7%" y2="0%"><stop offset="20%" stop-color="#cb1c33" stop-opacity="1"></stop><stop offset="80%" stop-color="#99222a" stop-opacity="1"></stop></linearGradient></defs><defs><linearGradient id="grad2_3" x1="0%" y1="100%" x2="66.7%" y2="0%"><stop offset="20%" stop-color="#6a2122" stop-opacity="1"></stop><stop offset="80%" stop-color="#99222a" stop-opacity="1"></stop></linearGradient></defs><defs><linearGradient id="grad2_4" x1="0%" y1="100%" x2="66.7%" y2="0%"><stop offset="20%" stop-color="#6a2122" stop-opacity="1"></stop><stop offset="80%" stop-color="#3d1b1a" stop-opacity="1"></stop></linearGradient></defs><defs><linearGradient id="grad2_5" x1="0%" y1="100%" x2="66.7%" y2="0%"><stop offset="20%" stop-color="#111111" stop-opacity="1"></stop><stop offset="80%" stop-color="#3d1b1a" stop-opacity="1"></stop></linearGradient></defs><g transform="translate(900, 600)"><path d="M-324.5 0C-314.6 -55.6 -304.7 -111.2 -278.9 -161C-253.1 -210.8 -211.4 -254.7 -162.2 -281C-113.1 -307.3 -56.6 -315.9 0 -324.5L0 0Z" fill="#281716"></path><path d="M-270.4 0C-262.2 -46.3 -253.9 -92.7 -232.4 -134.2C-210.9 -175.7 -176.1 -212.3 -135.2 -234.2C-94.3 -256.1 -47.1 -263.3 0 -270.4L0 0Z" fill="#531f1e"></path><path d="M-216.3 0C-209.7 -37.1 -203.1 -74.1 -185.9 -107.3C-168.7 -140.5 -140.9 -169.8 -108.2 -187.3C-75.4 -204.9 -37.7 -210.6 0 -216.3L0 0Z" fill="#812226"></path><path d="M-162.2 0C-157.3 -27.8 -152.3 -55.6 -139.4 -80.5C-126.5 -105.4 -105.7 -127.4 -81.1 -140.5C-56.6 -153.7 -28.3 -158 0 -162.2L0 0Z" fill="#b2202f"></path><path d="M-108.2 0C-104.9 -18.5 -101.6 -37.1 -93 -53.7C-84.4 -70.3 -70.5 -84.9 -54.1 -93.7C-37.7 -102.4 -18.9 -105.3 0 -108.2L0 0Z" fill="#e51438"></path><path d="M-54.1 0C-52.4 -9.3 -50.8 -18.5 -46.5 -26.8C-42.2 -35.1 -35.2 -42.5 -27 -46.8C-18.9 -51.2 -9.4 -52.7 0 -54.1L0 0Z" fill="#ff013c"></path></g><g transform="translate(0, 0)"><path d="M324.5 0C318.8 61.5 313 123.1 281 162.2C249 201.4 190.7 218.3 139.5 241.6C88.3 264.9 44.1 294.7 0 324.5L0 0Z" fill="#281716"></path><path d="M270.4 0C265.6 51.3 260.9 102.5 234.2 135.2C207.5 167.9 158.9 181.9 116.3 201.4C73.6 220.8 36.8 245.6 0 270.4L0 0Z" fill="#531f1e"></path><path d="M216.3 0C212.5 41 208.7 82 187.3 108.2C166 134.3 127.1 145.5 93 161.1C58.9 176.6 29.4 196.5 0 216.3L0 0Z" fill="#812226"></path><path d="M162.2 0C159.4 30.8 156.5 61.5 140.5 81.1C124.5 100.7 95.4 109.2 69.8 120.8C44.1 132.5 22.1 147.4 0 162.2L0 0Z" fill="#b2202f"></path><path d="M108.2 0C106.3 20.5 104.3 41 93.7 54.1C83 67.1 63.6 72.8 46.5 80.5C29.4 88.3 14.7 98.2 0 108.2L0 0Z" fill="#e51438"></path><path d="M54.1 0C53.1 10.3 52.2 20.5 46.8 27C41.5 33.6 31.8 36.4 23.3 40.3C14.7 44.2 7.4 49.1 0 54.1L0 0Z" fill="#ff013c"></path></g></svg>